<?xml version="1.0" encoding="UTF-8"?>
<!DOCTYPE svg PUBLIC "-//W3C//DTD SVG 1.1//EN" "http://www.w3.org/Graphics/SVG/1.1/DTD/svg11.dtd">
<svg xmlns="http://www.w3.org/2000/svg" version="1.1" width="1743px" height="892px" style="shape-rendering:geometricPrecision; text-rendering:geometricPrecision; image-rendering:optimizeQuality; fill-rule:evenodd; clip-rule:evenodd" xmlns:xlink="http://www.w3.org/1999/xlink">
<g><path style="opacity:1" fill="#5F92CC" d="M 1365.5,481.5 C 1365.83,482.167 1366.17,482.833 1366.5,483.5C 1366.56,484.043 1366.89,484.376 1367.5,484.5C 1368.5,396.836 1368.83,309.169 1368.5,221.5C 1374.74,203.207 1387.41,196.04 1406.5,200C 1417.07,203.57 1423.9,210.737 1427,221.5C 1427.33,328.833 1427.67,436.167 1428,543.5C 1510.75,625.916 1593.75,707.916 1677,789.5C 1684.74,802.886 1684.07,815.886 1675,828.5C 1666.43,836.8 1656.26,839.633 1644.5,837C 1640.6,835.435 1636.93,833.435 1633.5,831C 1380.89,582.055 1128.55,332.722 876.5,83C 865.212,75.3572 854.212,75.6905 843.5,84C 591.698,333.47 339.698,582.47 87.5,831C 74.4723,839.628 61.4723,839.628 48.5,831C 36.9642,818.27 35.4642,804.436 44,789.5C 296.832,540.334 549.332,290.834 801.5,41C 832.73,14.2718 866.73,10.2718 903.5,29C 909.191,32.5134 914.524,36.5134 919.5,41C 1067.78,188.451 1216.45,335.285 1365.5,481.5 Z"/></g>
<g><path style="opacity:1" fill="#5F92CC" d="M 737.5,455.5 C 769.835,455.333 802.168,455.5 834.5,456C 838.241,457.738 841.408,460.238 844,463.5C 845.652,497.415 845.986,531.415 845,565.5C 843.098,570.4 839.598,573.567 834.5,575C 802.167,575.667 769.833,575.667 737.5,575C 732.402,573.567 728.902,570.4 727,565.5C 726.333,532.167 726.333,498.833 727,465.5C 729.354,460.916 732.854,457.583 737.5,455.5 Z"/></g>
<g><path style="opacity:1" fill="#5F92CC" d="M 886.5,455.5 C 918.835,455.333 951.168,455.5 983.5,456C 988.394,457.686 991.894,460.853 994,465.5C 994.667,498.5 994.667,531.5 994,564.5C 992.526,569.974 989.026,573.474 983.5,575C 951.167,575.667 918.833,575.667 886.5,575C 880.525,573.361 877.025,569.528 876,563.5C 875.333,530.833 875.333,498.167 876,465.5C 878.409,460.922 881.909,457.588 886.5,455.5 Z"/></g>
<g><path style="opacity:1" fill="#5F92CC" d="M 884.5,605.5 C 917.835,605.333 951.168,605.5 984.5,606C 989.206,607.105 992.373,609.938 994,614.5C 994.667,647.5 994.667,680.5 994,713.5C 992.526,718.974 989.026,722.474 983.5,724C 951.167,724.667 918.833,724.667 886.5,724C 881.427,722.594 877.927,719.428 876,714.5C 875.333,681.167 875.333,647.833 876,614.5C 878.025,610.644 880.858,607.644 884.5,605.5 Z"/></g>
<g><path style="opacity:1" fill="#5F92CC" d="M 735.5,605.5 C 768.835,605.333 802.168,605.5 835.5,606C 839.911,607.41 843.078,610.243 845,614.5C 845.667,647.833 845.667,681.167 845,714.5C 843.098,719.4 839.598,722.567 834.5,724C 802.167,724.667 769.833,724.667 737.5,724C 731.974,722.474 728.474,718.974 727,713.5C 726.333,680.833 726.333,648.167 727,615.5C 728.606,611.066 731.439,607.732 735.5,605.5 Z"/></g>
</svg>
